# xmcd
#
# Track frame offsets:
# 183
# 12253
# 26223
# 37863
# 52895
# 66228
# 80188
# 93913
# 105090
# 117980
# 131358
# 146208
# 158530
# 171773
#
# Disc length: 2435 seconds
#
#
# Revision: 0
# Processed by: cddbd v1.4PL0 Copyright (c) Steve Scherf et al.
# Submitted via: FreeRIP 2.30 
#
DISCID=ad09810e
DTITLE=Sonny Terry - Sonny Terry
DYEAR=1990
DGENRE=Blues
TTITLE0=Wine Headed Woman
TTITLE1=Four O'Clock Blues
TTITLE2=Baby Let's Have Some Fun
TTITLE3=Bad Luck Blues
TTITLE4=Lonesome Room
TTITLE5=News For You Baby
TTITLE6=No Love Blues
TTITLE7=Harmonica Rumba
TTITLE8=No Love Blues
TTITLE9=Lonesome Room
TTITLE10=Bad Luck Blues
TTITLE11=Wine Headed Woman
TTITLE12=Four O'Clock Blues
TTITLE13=Baby Let's Have Some Fun
EXTD=
EXTT0=
EXTT1=
EXTT2=
EXTT3=
EXTT4=
EXTT5=
EXTT6=
EXTT7=
EXTT8=
EXTT9=
EXTT10=
EXTT11=
EXTT12=
EXTT13=
PLAYORDER=
